<svg width="11" height="30" viewBox="0 0 11 30" fill="none" xmlns="http://www.w3.org/2000/svg">
<path fill-rule="evenodd" clip-rule="evenodd" d="M9.71117 0.67931C10.4406 1.07207 10.7135 1.98176 10.3207 2.71117L3.70365 15L10.3207 27.2889C10.7135 28.0183 10.4406 28.928 9.71117 29.3207C8.98176 29.7135 8.07207 29.4406 7.67931 28.7112L0.296387 15L7.67931 1.28887C8.07207 0.55946 8.98176 0.286552 9.71117 0.67931Z" fill="#3A5B84" fill-opacity="0.8"/>
<path fill-rule="evenodd" clip-rule="evenodd" d="M7.74098 4.56191C7.98294 4.69499 8.07121 4.99902 7.93813 5.24098L2.57066 15L7.93813 24.7591C8.07121 25.001 7.98294 25.305 7.74098 25.4381C7.49902 25.5712 7.19499 25.4829 7.06191 25.241L1.42938 15L7.06191 4.75906C7.19499 4.5171 7.49902 4.42883 7.74098 4.56191Z" fill="#45B4E4" fill-opacity="0.8"/>
</svg>
