<svg width="11" height="30" viewBox="0 0 11 30" fill="none" xmlns="http://www.w3.org/2000/svg">
<path fill-rule="evenodd" clip-rule="evenodd" d="M1.28884 0.67931C2.01824 0.286552 2.92794 0.55946 3.32069 1.28887L10.3207 14.2889C10.7134 15.0183 10.4405 15.928 9.71113 16.3207C8.98173 16.7135 8.07204 16.4406 7.67928 15.7112L0.679279 2.71117C0.286522 1.98176 0.55943 1.07207 1.28884 0.67931Z" fill="#3A5B84"/>
<path fill-rule="evenodd" clip-rule="evenodd" d="M9.71113 13.6793C10.4405 14.0721 10.7134 14.9818 10.3207 15.7112L3.32069 28.7112C2.92794 29.4406 2.01824 29.7135 1.28884 29.3207C0.55943 28.928 0.286522 28.0183 0.679279 27.2889L7.67928 14.2889C8.07204 13.5595 8.98173 13.2866 9.71113 13.6793Z" fill="#3A5B84"/>
<path fill-rule="evenodd" clip-rule="evenodd" d="M2.76295 3.27406C3.00609 3.14315 3.30932 3.23411 3.44024 3.47725L9.44024 14.6201C9.57115 14.8632 9.48019 15.1665 9.23705 15.2974C8.99391 15.4283 8.69068 15.3373 8.55976 15.0942L2.55976 3.95135C2.42885 3.70821 2.51981 3.40498 2.76295 3.27406Z" fill="#45B4E4"/>
<path fill-rule="evenodd" clip-rule="evenodd" d="M9.23705 14.4169C9.48019 14.5478 9.57115 14.8511 9.44024 15.0942L3.44024 26.2371C3.30932 26.4802 3.00609 26.5712 2.76295 26.4403C2.51981 26.3093 2.42885 26.0061 2.55976 25.763L8.55976 14.6201C8.69068 14.377 8.99391 14.286 9.23705 14.4169Z" fill="#45B4E4"/>
</svg>
