<svg width="11" height="30" viewBox="0 0 11 30" fill="none" xmlns="http://www.w3.org/2000/svg">
<path fill-rule="evenodd" clip-rule="evenodd" d="M1.08552 29.3207C0.356116 28.9279 0.0832081 28.0182 0.475965 27.2888L7.09304 15L0.475965 2.7111C0.0832081 1.9817 0.356116 1.072 1.08552 0.679247C1.81493 0.286489 2.72462 0.559399 3.11738 1.28881L10.5003 15L3.11738 28.7111C2.72462 29.4405 1.81493 29.7134 1.08552 29.3207Z" fill="#3A5B84" fill-opacity="0.8"/>
<path fill-rule="evenodd" clip-rule="evenodd" d="M3.05571 25.4381C2.81375 25.305 2.72549 25.001 2.85856 24.759L8.22604 15L2.85856 5.24091C2.72549 4.99895 2.81375 4.69492 3.05571 4.56184C3.29767 4.42877 3.6017 4.51703 3.73478 4.75899L9.36731 15L3.73478 25.2409C3.6017 25.4829 3.29767 25.5711 3.05571 25.4381Z" fill="#45B4E4" fill-opacity="0.8"/>
</svg>
