<svg width="11" height="30" viewBox="0 0 11 30" fill="none" xmlns="http://www.w3.org/2000/svg">
<path fill-rule="evenodd" clip-rule="evenodd" d="M9.71116 29.3207C8.98176 29.7134 8.07206 29.4405 7.67931 28.7111L0.679308 15.7111C0.286551 14.9817 0.559459 14.072 1.28887 13.6792C2.01827 13.2865 2.92796 13.5594 3.32072 14.2888L10.3207 27.2888C10.7135 28.0182 10.4406 28.9279 9.71116 29.3207Z" fill="#3A5B84"/>
<path fill-rule="evenodd" clip-rule="evenodd" d="M1.28887 16.3207C0.559459 15.9279 0.286551 15.0182 0.679308 14.2888L7.67931 1.2888C8.07206 0.559398 8.98176 0.286489 9.71116 0.679247C10.4406 1.072 10.7135 1.9817 10.3207 2.7111L3.32072 15.7111C2.92796 16.4405 2.01827 16.7134 1.28887 16.3207Z" fill="#3A5B84"/>
<path fill-rule="evenodd" clip-rule="evenodd" d="M8.23705 26.7259C7.99391 26.8568 7.69068 26.7659 7.55976 26.5227L1.55976 15.3799C1.42885 15.1367 1.51981 14.8335 1.76295 14.7026C2.00609 14.5717 2.30932 14.6626 2.44024 14.9058L8.44024 26.0486C8.57115 26.2918 8.48019 26.595 8.23705 26.7259Z" fill="#45B4E4"/>
<path fill-rule="evenodd" clip-rule="evenodd" d="M1.76295 15.583C1.51981 15.4521 1.42885 15.1489 1.55976 14.9058L7.55976 3.7629C7.69068 3.51977 7.99391 3.4288 8.23705 3.55972C8.48019 3.69064 8.57115 3.99387 8.44024 4.237L2.44024 15.3799C2.30932 15.623 2.00609 15.714 1.76295 15.583Z" fill="#45B4E4"/>
</svg>
